<?xml version="1.0" encoding="utf-8"?><svg version="1.1" id="Layer_1" xmlns="http://www.w3.org/2000/svg" xmlns:xlink="http://www.w3.org/1999/xlink" x="0px" y="0px" viewBox="0 0 97.92 122.88" style="enable-background:new 0 0 97.92 122.88" xml:space="preserve"><style type="text/css">.st0{fill-rule:evenodd;clip-rule:evenodd;}</style><g><path class="st0" d="M22.83,20.11h34.79c2.47,0,2.34,1,2.12,3.55l-1.4,17.91c-0.24,2.85-0.04,2.16-3.06,2.6l-24.79,2.19l1.47,4.27 c12.06,0,14.88,0,26.93,0c0.41,1.52,0.96,3.98,1.36,5.67h-4.97l-0.48-1.73c-10.04,0-10.87,0-20.92,0 c-5.49-0.09-4.94,1.39-6.25-3.35l-9.43-32.2h-2.91v-4.01h6.32C21.98,16.39,22.49,18.72,22.83,20.11L22.83,20.11z M68.17,0.66 C67.73,0.26,67.11,0,66.5,0c-0.13,0-0.26,0-0.4,0.04H5.54c-1.49,0-2.9,0.62-3.91,1.63C0.62,2.68,0,4.04,0,5.58v111.76 c0,1.54,0.62,2.9,1.63,3.91c1.01,1.01,2.37,1.63,3.91,1.63h86.76c1.54,0,2.9-0.62,3.91-1.63c1.01-1.01,1.63-2.37,1.63-3.91V32.3 c0.04-0.22,0.09-0.4,0.09-0.62c0-0.75-0.35-1.41-0.84-1.89L68.47,0.83c-0.09-0.09-0.13-0.13-0.22-0.18L68.17,0.66L68.17,0.66 L68.17,0.66z M66.2,5.01v19.46c0,2.07,0.84,3.96,2.2,5.32c1.36,1.36,3.25,2.2,5.32,2.2h19.06v85.36c0,0.13-0.04,0.31-0.18,0.4 c-0.09,0.09-0.22,0.18-0.4,0.18H5.49c-0.13,0-0.31-0.04-0.4-0.18c-0.09-0.09-0.18-0.26-0.18-0.4V5.58c0-0.18,0.04-0.31,0.18-0.4 c0.09-0.09,0.22-0.18,0.4-0.18H66.2L66.2,5.01L66.2,5.01z M71.16,24.47V8.97l17.79,18.05H73.71c-0.7,0-1.32-0.31-1.8-0.75 C71.47,25.83,71.16,25.17,71.16,24.47L71.16,24.47L71.16,24.47z M20.52,68.8c-1.36,0-2.5,1.1-2.5,2.51c0,1.36,1.1,2.51,2.5,2.51 h56.13c1.36,0,2.51-1.1,2.51-2.51c0-1.36-1.1-2.51-2.51-2.51H20.52L20.52,68.8z M21.46,99.38c-1.36,0-2.51,1.1-2.51,2.51 c0,1.36,1.1,2.5,2.51,2.5h55.76c1.36,0,2.51-1.1,2.51-2.51c0-1.36-1.1-2.5-2.51-2.5H21.46L21.46,99.38L21.46,99.38z M20.52,85.06 c-1.36,0-2.5,1.1-2.5,2.5c0,1.36,1.1,2.5,2.5,2.5h56.7c1.36,0,2.5-1.1,2.5-2.5c0-1.36-1.1-2.5-2.5-2.5H20.52L20.52,85.06z M39.42,27.06h1.4c0.25,0,0.46,0.21,0.46,0.46v5.38h4.91c0.26,0,0.46,0.21,0.46,0.46v1.4c0,0.26-0.21,0.47-0.46,0.47h-7.23v-7.7 C38.95,27.27,39.16,27.06,39.42,27.06L39.42,27.06z M41.27,22.82c5.38,0,9.75,4.37,9.75,9.75c0,5.38-4.36,9.75-9.75,9.75 c-5.38,0-9.75-4.36-9.75-9.75C31.52,27.18,35.88,22.82,41.27,22.82L41.27,22.82z M33.91,58.31c2.12,0,3.84,1.72,3.84,3.84 c0,2.12-1.72,3.84-3.84,3.84c-2.12,0-3.84-1.72-3.84-3.84C30.07,60.02,31.79,58.31,33.91,58.31L33.91,58.31z M49.75,58.31 c2.12,0,3.84,1.72,3.84,3.84c0,2.12-1.72,3.84-3.84,3.84c-2.12,0-3.84-1.72-3.84-3.84C45.91,60.02,47.62,58.31,49.75,58.31 L49.75,58.31z"/></g></svg>